<?xml version="1.0" standalone="no"?>
<!DOCTYPE svg PUBLIC "-//W3C//DTD SVG 20010904//EN"
 "http://www.w3.org/TR/2001/REC-SVG-20010904/DTD/svg10.dtd">
<svg version="1.0" xmlns="http://www.w3.org/2000/svg"
 width="100.000000px" height="225.000000pt" viewBox="110 0 80.000000 225.000000"
 preserveAspectRatio="xMidYMid meet">
<metadata>
Created by potrace 1.10, written by Peter Selinger 2001-2011
</metadata>
<g transform="translate(0.000000,225.000000) scale(0.100000,-0.100000)"
fill="#FEF9D9" stroke="none">
<path d="M1539 1586 c-66 -52 -109 -128 -109 -190 1 -23 10 -66 21 -96 55
-150 54 -147 36 -184 -21 -44 -51 -54 -86 -29 -42 31 -61 80 -61 158 l-1 70
-30 -35 c-16 -19 -42 -60 -57 -90 -23 -47 -27 -68 -27 -140 0 -73 4 -93 28
-142 27 -54 76 -108 100 -108 6 0 1 10 -10 23 -48 52 -79 146 -67 206 9 45 28
48 69 12 20 -17 47 -34 61 -37 65 -16 136 29 155 99 12 45 6 80 -27 160 -40
96 -7 106 73 21 75 -79 117 -169 121 -260 5 -84 -9 -134 -50 -186 -32 -42 -29
-47 11 -19 73 52 108 188 76 296 -23 81 -42 115 -123 224 -79 106 -99 155 -82
205 6 19 20 42 30 51 20 18 26 35 13 35 -5 0 -33 -20 -64 -44z m-19 -109 c0
-6 11 -33 25 -60 l25 -47 -23 0 c-12 0 -33 -7 -45 -16 -20 -14 -23 -14 -28 1
-9 23 1 102 16 120 15 18 30 19 30 2z m-192 -372 c-2 -2 -16 -5 -33 -7 -33 -3
-35 8 -12 67 l11 29 19 -43 c10 -23 17 -44 15 -46z"/>
<path d="M1208 751 c65 -60 158 -108 235 -122 74 -13 152 1 233 42 57 28 170
117 161 125 -2 3 -30 -11 -62 -30 -96 -58 -146 -71 -275 -71 -129 0 -179 13
-275 70 -32 19 -60 35 -64 35 -3 -1 18 -23 47 -49z"/>
</g>
</svg>
